<svg width="5" height="6" viewBox="0 0 59 64" fill="none" xmlns="http://www.w3.org/2000/svg">
<path d="M40.7708 0.218489C29.8907 -1.44312 19.8331 6.54929 17.8804 18.1786C12.9637 21.1031 9.46795 26.5149 8.87871 32.9299C3.66025 35.3413 0 40.9564 0 47.5023C0 56.2467 6.52921 63.3356 14.5833 63.3356C20.6274 63.3278 25.8094 59.3326 28.0216 53.6429C33.8819 52.9958 38.8397 49.2509 41.5402 43.906C50.1752 42.214 56.9038 34.7407 58.1345 25.2425C59.7043 13.1265 51.9303 1.923 40.7708 0.218489ZM14.5833 60.1689C8.13993 60.1689 2.91667 54.498 2.91667 47.5023C2.91667 40.5066 8.13993 34.8356 14.5833 34.8356C21.0241 34.8426 26.2436 40.5095 26.25 47.5023C26.25 54.498 21.0267 60.1689 14.5833 60.1689ZM28.8961 50.3875C29.0565 49.4494 29.1656 48.4907 29.1667 47.5023C29.1667 38.7578 22.6375 31.669 14.5833 31.669C13.6722 31.669 12.7885 31.7865 11.9237 31.9601C13.0187 25.5044 17.6711 20.4527 23.6173 19.2641C31.5334 17.6813 39.1322 23.3656 40.59 31.9601C42.0476 40.5547 36.8121 48.805 28.8961 50.3875ZM42.9553 40.3433C42.9553 40.3433 42.9204 40.4015 42.896 40.4422C43.3397 38.8943 43.6715 37.2936 43.7354 35.6028C44.1311 25.124 36.6278 16.281 26.9763 15.8515C24.9595 15.7617 23.0159 16.0655 21.1877 16.6678C22.884 10.571 27.2807 5.80189 32.9003 3.97059C42.1514 0.955843 51.9019 6.65444 54.6784 16.6985C57.455 26.7425 52.2064 37.3287 42.9553 40.3433Z" fill="white"/>
</svg>
